<?xml version="1.0" encoding="UTF-8"?>
<svg width="1200pt" height="1200pt" version="1.1" viewBox="0 0 1200 1200" xmlns="http://www.w3.org/2000/svg">
 <path d="m244.18 339.24h819.89v-0.70312c0-14.109-5.8125-27-15.094-36.328-9.3281-9.3281-22.172-15.094-36.328-15.094h-830.21c-14.109 0-27 5.8125-36.328 15.094-9.3281 9.3281-15.094 22.172-15.094 36.328v500.86c0 13.922 5.5781 26.578 14.578 35.859 6.2812 6.4688 14.25 11.297 23.109 13.781v-474.37c0-20.766 8.4844-39.656 22.125-53.297s32.531-22.125 53.297-22.125zm843.94 1.2656c15.281 2.8125 29.016 10.312 39.609 20.859 13.641 13.641 22.125 32.531 22.125 53.297v500.86c0 20.766-8.4844 39.656-22.125 53.297s-32.531 22.125-53.297 22.125h-830.21c-20.766 0-39.656-8.4844-53.297-22.125s-22.125-32.531-22.125-53.297v-2.0156c-15.656-2.9062-29.625-10.641-40.266-21.562-8.8594-9.0938-15.469-20.391-18.844-33-15.562-3.4219-29.391-11.625-39.75-22.969-12.188-13.406-19.688-31.219-19.688-50.672v-500.86c0-20.766 8.4844-39.656 22.125-53.297s32.531-22.125 53.297-22.125h830.21c18.75 0 36 6.9844 49.266 18.469 11.203 9.7031 19.547 22.641 23.531 37.359 14.391 3.1406 27.281 10.359 37.312 20.438 13.641 13.641 22.125 32.531 22.125 53.297zm-981.1 492.79v-494.72c0-20.766 8.4844-39.656 22.125-53.297s32.531-22.125 53.297-22.125h820.18c-3.0938-6.75-7.6406-12.75-13.172-17.531-9-7.7812-20.766-12.562-33.609-12.562h-830.21c-14.109 0-27 5.8125-36.328 15.094-9.3281 9.3281-15.094 22.172-15.094 36.328v500.86c0 13.266 5.1094 25.406 13.406 34.547 5.3438 5.8594 11.953 10.5 19.406 13.406zm498.52-52.453c-12.328 11.016-26.203 20.297-41.297 27.469 6.5156 52.969 0.98438 107.3-16.828 158.63h88.266c2.3906-15.469 3.4688-30.938 3.4688-46.594 0-50.25-12.141-97.734-33.656-139.5zm-64.453 36.516c-16.359 5.0625-33.703 7.8281-51.656 7.8281-27.469 0-53.484-6.375-76.594-17.672l-62.625 108.52 88.266 50.953h83.484c18.047-48.141 24.375-99.422 19.125-149.58zm-148.97-21.844c-9.3281-6.2812-18-13.453-25.922-21.375-22.875-22.875-39.422-52.078-46.781-84.797-49.266 21.984-93.047 56.062-126.66 99.844v35.906l136.69 78.938zm-76.406-130.64c-0.375-4.5938-0.5625-9.2812-0.5625-13.969 0-8.8125 0.65625-17.484 1.9219-26.016 0.46875-3.1875 1.0312-6.3281 1.6875-9.5156-21.094 0.98438-41.531 4.1719-61.125 9.1875-22.688 5.8125-44.438 14.25-64.922 24.938v102.42c33.656-36.984 74.625-66.094 119.81-85.734l3.1406-1.3125zm27.703-49.688c-1.0312 4.3125-1.9219 8.7656-2.5781 13.266-1.0781 7.2656-1.6406 14.766-1.6406 22.453l0.09375 4.9688c34.641-11.812 71.25-18.328 108.66-18.844-32.438-13.031-67.641-20.672-104.48-21.844zm-1.3594 65.062c5.9062 29.719 20.531 56.297 41.156 76.922 6.4219 6.4219 13.5 12.281 21 17.484l65.438-113.34c-44.062-2.2031-87.328 4.5-127.6 18.938zm82.875 106.41c19.547 9.3281 41.438 14.531 64.547 14.531 16.922 0 33.141-2.7656 48.234-7.875-7.5469-42.141-23.438-83.016-47.344-120.05zm135.37-3.0938c12.141-6.5156 23.297-14.625 33.188-24.094-12.422-20.016-27.094-38.438-43.594-54.984-8.6719-8.6719-17.859-16.828-27.516-24.375 18.234 32.672 30.891 67.594 37.969 103.45zm-222 153.14-17.484 30.281h69.891zm-45.094 30.281 24.375-42.234-124.74-72.047v62.859c0 14.109 5.8125 27 15.094 36.328 9.3281 9.3281 22.172 15.094 36.328 15.094zm-100.36-344.21c18.703-8.8594 38.484-16.078 59.016-21.328 26.344-6.75 53.906-10.359 82.078-10.359 90.891 0 173.21 36.844 232.82 96.469 61.641 61.688 96.516 144.84 96.516 232.87 0 15.469-1.125 31.266-3.3281 46.594h414.52c14.109 0 27-5.8125 36.328-15.094 9.3281-9.3281 15.094-22.172 15.094-36.328v-368.68h-933.05zm0-153.56h933.05v-54.516c0-14.109-5.8125-27-15.094-36.328-8.9531-8.9531-21.141-14.625-34.594-15.094-277.26 0-554.63-0.046875-831.94-0.046875-14.109 0-27 5.8125-36.328 15.094-9.3281 9.3281-15.094 22.172-15.094 36.328zm933.05 24h-933.05v29.672h933.05zm-275.16 321.1h12v24h-38.484v-24zm31.5 0.046875h34.5v-22.781h-116.44v60.891c0 5.4375 2.2031 10.359 5.7656 13.969 3.5625 3.5625 8.5312 5.7656 13.969 5.7656h96.703v-33.797h-34.5zm58.5 0h66.609v-49.219c0-5.3906-2.25-10.359-5.8125-13.922s-8.4844-5.8125-13.922-5.8125h-167.63c-5.4375 0-10.359 2.2031-13.922 5.8125-3.5625 3.5625-5.8125 8.4844-5.8125 13.922v2.4375h128.44c6.6094 0 12 5.3906 12 12v34.781zm66.609 24h-66.609v33.797h46.922c5.4375 0 10.359-2.2031 13.969-5.7656 3.5625-3.5625 5.7656-8.5312 5.7656-13.969v-14.109zm-187.31-116.95h167.63c12.047 0 22.969 4.9219 30.891 12.844 7.875 7.875 12.844 18.844 12.844 30.891v87.328c0 12-4.9219 22.922-12.844 30.844-7.9688 7.9688-18.891 12.891-30.891 12.891h-167.63c-12 0-22.922-4.9219-30.844-12.844-7.9688-7.9688-12.891-18.891-12.891-30.891v-87.328c0-12.047 4.9219-22.969 12.844-30.891s18.844-12.844 30.891-12.844z"/>
</svg>
